<?xml version="1.0" standalone="no"?>
<!DOCTYPE svg PUBLIC "-//W3C//DTD SVG 20010904//EN"
 "http://www.w3.org/TR/2001/REC-SVG-20010904/DTD/svg10.dtd">
<svg version="1.0" xmlns="http://www.w3.org/2000/svg"
 width="150.000000pt" height="150.000000pt" viewBox="0 0 150.000000 150.000000"
 preserveAspectRatio="xMidYMid meet">

<g transform="translate(0.000000,150.000000) scale(0.100000,-0.100000)"
fill="#000000" stroke="none">
<path d="M1075 1362 c-17 -11 -64 -55 -105 -99 -66 -70 -80 -81 -117 -86 -24
-3 -53 -13 -67 -24 -65 -50 -203 -178 -219 -204 -11 -16 -47 -43 -80 -61 -87
-46 -141 -103 -163 -171 l-17 -56 24 -20 c13 -11 30 -20 37 -21 18 0 16 -3
-33 -76 -25 -36 -45 -71 -45 -78 0 -10 23 -15 83 -18 134 -7 242 -66 409 -226
43 -41 78 -68 78 -60 0 12 13 14 73 10 44 -2 82 0 94 6 23 13 58 81 68 135 4
19 13 38 20 41 22 8 29 107 12 165 -12 43 -13 51 -1 51 19 0 18 5 -11 75 -28
68 -32 133 -11 173 8 15 34 57 59 93 24 37 50 90 57 118 14 59 6 121 -15 121
-11 0 -15 13 -15 53 0 69 -16 124 -45 153 -29 29 -32 29 -70 6z m15 -83 c0 -5
11 -9 25 -9 24 0 46 -25 44 -52 0 -7 -4 -4 -8 7 -7 19 -8 18 -21 -5 -7 -14
-24 -38 -36 -53 -23 -27 -61 -134 -51 -143 7 -7 78 26 114 53 l33 25 0 -40 c0
-33 -12 -58 -64 -137 -87 -129 -93 -173 -39 -302 3 -9 -5 -13 -22 -13 -22 0
-26 -3 -20 -17 24 -55 42 -118 36 -123 -4 -3 -11 -32 -15 -65 -10 -85 -76
-182 -76 -111 0 46 -7 51 -65 48 -42 -3 -67 2 -109 21 -62 28 -149 105 -173
152 -15 27 -17 28 -23 10 -7 -18 -10 -15 -24 17 -9 21 -16 44 -16 53 0 8 -5
15 -11 15 -8 0 -8 5 1 15 11 13 4 15 -56 15 -49 0 -80 6 -112 21 -52 26 -58
38 -39 76 24 45 76 88 167 138 96 52 123 73 116 90 -4 12 120 132 173 167 16
11 45 18 73 18 37 0 46 3 42 14 -8 22 96 121 129 122 15 1 27 -2 27 -7z"/>
<path d="M828 1100 c-14 -11 -28 -29 -31 -40 -5 -18 0 -16 29 10 19 16 39 30
45 30 6 0 7 5 4 10 -9 15 -19 12 -47 -10z"/>
<path d="M732 1038 c-36 -46 -70 -158 -47 -158 8 0 17 -24 24 -62 15 -88 91
-192 91 -126 0 21 1 21 19 -8 10 -17 32 -41 47 -53 l29 -23 5 50 c6 61 14 71
38 49 26 -24 32 -21 32 16 0 17 14 68 30 112 16 44 30 83 30 87 0 5 -22 -8
-49 -27 -54 -39 -63 -42 -55 -20 10 25 -4 17 -41 -22 l-35 -38 -20 25 -20 25
0 -35 c-1 -33 -1 -34 -16 -15 -8 11 -20 39 -27 62 -6 23 -15 39 -20 36 -7 -4
-8 20 -4 65 3 40 4 72 3 72 -2 0 -8 -6 -14 -12z"/>
<path d="M574 815 c-54 -57 -68 -66 -57 -39 13 35 -90 -6 -126 -50 -10 -12 -6
-18 30 -35 24 -12 51 -21 61 -21 10 0 18 -5 18 -11 0 -11 25 -8 64 7 10 4 17
-2 22 -20 6 -27 18 -33 29 -15 4 6 17 -12 30 -39 30 -65 90 -124 162 -160 64
-32 156 -57 173 -47 6 4 13 -6 16 -24 8 -39 19 -39 40 1 23 44 29 134 11 183
-17 47 -30 48 -38 3 -3 -18 -10 -42 -16 -52 -10 -18 -13 -16 -41 27 -31 50
-42 51 -42 5 0 -15 -5 -28 -11 -28 -23 0 -77 32 -109 65 -38 39 -50 43 -50 18
0 -35 -59 72 -76 137 -9 36 -18 67 -20 69 -2 2 -13 -4 -24 -14 -21 -19 -21
-19 -10 9 6 16 20 42 31 57 19 27 19 29 3 29 -10 0 -42 -25 -70 -55z"/>
</g>
</svg>
