<?xml version="1.0" encoding="UTF-8"?>
<svg version="1.1" xmlns="http://www.w3.org/2000/svg" width="1098" height="300">
<path d="M0,0 L7,0 L16,9 L17,14 L21,16 L24,22 L23,33 L24,37 L22,42 L22,56 L26,67 L28,77 L29,96 L26,106 L26,116 L23,125 L20,133 L16,136 L15,142 L7,153 L2,156 L0,167 L-3,172 L-6,181 L-6,188 L1,185 L7,183 L13,182 L21,185 L24,190 L25,198 L22,214 L17,225 L16,227 L21,229 L27,237 L27,249 L21,269 L15,286 L13,293 L10,298 L5,299 L-82,299 L-87,296 L-94,297 L-107,299 L-183,299 L-188,296 L-189,292 L-185,285 L-182,282 L-179,277 L-171,270 L-164,263 L-155,256 L-156,241 L-151,231 L-149,221 L-148,219 L-148,200 L-153,203 L-171,203 L-183,200 L-187,196 L-192,193 L-198,184 L-200,176 L-203,173 L-204,169 L-201,164 L-195,162 L-183,166 L-173,166 L-163,163 L-155,159 L-149,154 L-147,149 L-146,142 L-140,134 L-127,127 L-117,118 L-108,112 L-100,109 L-87,107 L-78,106 L-72,102 L-56,89 L-53,89 L-51,84 L-44,77 L-38,74 L-36,71 L-36,61 L-31,52 L-28,49 L-23,35 L-17,27 L-12,24 L-5,9 L-3,3 Z M-63,176 L-66,184 L-68,189 L-71,203 L-79,212 L-90,220 L-90,229 L-88,237 L-83,235 L-77,231 L-71,227 L-59,221 L-51,218 L-52,214 L-54,208 L-55,182 L-57,177 Z M-29,203 Z M-117,214 Z M-119,215 L-124,227 L-128,240 L-129,244 L-128,247 L-119,248 L-111,247 L-112,229 L-117,215 Z " fill="#EEEDED" transform="translate(211,0)"/>
<path d="M0,0 L51,0 L65,3 L75,8 L85,17 L92,28 L95,38 L96,45 L96,79 L92,95 L86,105 L78,113 L92,163 L100,191 L99,198 L94,201 L64,201 L59,198 L56,190 L39,126 L39,123 L35,123 L35,197 L32,200 L29,201 L0,201 L-5,198 L-6,196 L-6,5 L-3,1 Z M35,40 L35,83 L49,83 L54,78 L54,45 L50,41 L48,40 Z " fill="#EEEDED" transform="translate(412,94)"/>
<path d="M0,0 L22,0 L35,4 L44,10 L50,15 L57,25 L61,36 L63,48 L63,68 L60,73 L57,74 L27,74 L22,71 L21,68 L20,46 L18,42 L13,40 L5,41 L2,44 L1,46 L1,158 L4,163 L6,164 L16,164 L19,163 L20,159 L21,127 L10,127 L5,124 L4,121 L4,93 L7,88 L9,87 L58,87 L62,90 L63,93 L63,157 L60,173 L55,183 L46,193 L38,199 L29,203 L20,205 L1,205 L-13,201 L-23,195 L-32,186 L-39,172 L-41,164 L-41,41 L-37,27 L-30,17 L-22,9 L-14,4 Z " fill="#EEEDED" transform="translate(648,92)"/>
<path d="M0,0 L39,0 L44,3 L47,16 L76,191 L75,198 L70,201 L40,201 L35,198 L33,191 L29,164 L29,159 L9,159 L8,173 L4,197 L1,200 L-2,201 L-31,201 L-36,198 L-37,196 L-36,184 L-7,9 L-5,3 Z M19,94 L17,103 L15,119 L23,119 L22,108 L20,94 Z " fill="#EDECEC" transform="translate(1009,94)"/>
<path d="M0,0 L39,0 L44,3 L47,16 L76,191 L75,198 L70,201 L40,201 L35,198 L33,191 L29,164 L29,159 L9,159 L8,173 L4,197 L1,200 L-2,201 L-31,201 L-36,198 L-37,196 L-36,184 L-7,9 L-5,3 Z M19,94 L17,103 L15,119 L23,119 L22,108 L20,94 Z " fill="#EDECEC" transform="translate(766,94)"/>
<path d="M0,0 L22,0 L34,4 L43,10 L51,18 L57,30 L60,41 L60,60 L57,63 L47,65 L26,67 L21,64 L20,62 L19,48 L17,41 L9,40 L4,43 L3,46 L3,55 L6,63 L13,72 L24,84 L37,97 L44,105 L54,118 L61,132 L64,144 L64,161 L60,176 L53,187 L45,195 L35,201 L21,205 L3,205 L-9,202 L-20,196 L-27,190 L-34,180 L-39,168 L-40,163 L-40,143 L-37,140 L-25,138 L-16,137 L-4,137 L0,142 L1,156 L4,162 L7,164 L17,164 L22,159 L22,148 L16,136 L1,120 L-9,111 L-16,103 L-25,93 L-33,80 L-38,65 L-39,58 L-39,45 L-36,31 L-30,19 L-21,9 L-11,3 Z " fill="#EDECEC" transform="translate(318,92)"/>
<path d="M0,0 L30,0 L35,4 L35,161 L82,161 L86,166 L86,195 L83,200 L80,201 L0,201 L-5,198 L-6,196 L-6,5 L-3,1 Z " fill="#EDECEC" transform="translate(870,94)"/>
<path d="M0,0 L7,0 L16,9 L17,14 L21,16 L24,22 L23,33 L24,37 L22,42 L22,56 L26,67 L28,77 L29,96 L26,106 L26,116 L23,125 L20,133 L16,136 L15,142 L7,153 L2,156 L0,167 L-3,172 L-6,181 L-6,188 L1,185 L7,183 L13,182 L21,185 L24,190 L25,198 L22,214 L17,225 L16,227 L21,229 L27,237 L27,249 L21,269 L15,286 L13,293 L10,298 L5,299 L-82,299 L-87,296 L-94,297 L-107,299 L-183,299 L-188,296 L-189,292 L-185,285 L-182,282 L-179,277 L-171,270 L-164,263 L-155,256 L-156,241 L-151,231 L-149,221 L-148,219 L-148,200 L-153,203 L-171,203 L-183,200 L-187,196 L-192,193 L-198,184 L-200,176 L-203,173 L-204,169 L-201,164 L-195,162 L-183,166 L-173,166 L-163,163 L-155,159 L-149,154 L-147,149 L-146,142 L-140,134 L-127,127 L-117,118 L-108,112 L-100,109 L-87,107 L-78,106 L-72,102 L-56,89 L-53,89 L-51,84 L-44,77 L-38,74 L-36,71 L-36,61 L-31,52 L-28,49 L-23,35 L-17,27 L-12,24 L-5,9 L-3,3 Z M3,7 L-1,17 L-7,28 L-14,33 L-18,41 L-21,50 L-21,53 L-23,53 L-27,58 L-29,61 L-29,65 L-24,65 L-31,76 L-36,81 L-41,83 L-41,85 L-45,89 L-47,93 L-53,95 L-53,97 L-57,98 L-57,100 L-60,101 L-60,103 L-64,105 L-72,111 L-81,114 L-101,116 L-111,122 L-120,130 L-122,131 L-122,133 L-127,135 L-135,139 L-140,145 L-140,149 L-138,149 L-144,158 L-144,160 L-148,162 L-157,168 L-168,172 L-177,174 L-183,174 L-191,170 L-197,169 L-195,170 L-193,174 L-190,178 L-192,179 L-192,181 L-188,185 L-187,188 L-178,191 L-178,193 L-180,194 L-171,194 L-171,196 L-162,196 L-158,195 L-155,196 L-148,191 L-147,193 L-144,193 L-144,191 L-140,189 L-135,187 L-129,179 L-128,177 L-128,184 L-131,192 L-138,200 L-141,203 L-141,218 L-145,234 L-149,241 L-148,256 L-146,260 L-152,262 L-161,269 L-165,273 L-165,275 L-167,275 L-171,280 L-171,281 L-162,282 L-173,283 L-179,288 L-181,292 L-105,292 L-97,290 L-78,286 L-72,284 L-57,280 L-47,276 L-36,273 L-51,280 L-63,284 L-72,288 L-81,291 L-81,292 L5,292 L10,280 L14,268 L14,266 L9,267 L4,268 L16,262 L19,253 L21,240 L16,235 L14,233 L10,234 L6,236 L6,238 L1,240 L-10,246 L-19,250 L-14,247 L-14,245 L-9,243 L-2,238 L-2,236 L3,234 L9,229 L16,208 L18,199 L18,193 L14,189 L4,191 L-11,200 L-13,197 L-13,178 L-10,173 L-9,166 L-7,166 L-6,159 L-12,162 L-15,166 L-19,167 L-26,172 L-29,173 L-30,176 L-28,178 L-26,181 L-24,188 L-23,201 L-20,208 L-25,210 L-29,212 L-29,214 L-32,214 L-34,211 L-35,200 L-34,182 L-30,171 L-25,170 L-20,167 L-18,164 L-15,165 L-13,161 L-6,157 L-3,150 L0,146 L1,148 L3,148 L4,144 L6,144 L6,139 L9,139 L8,133 L12,128 L15,129 L15,121 L17,121 L16,117 L19,116 L17,110 L19,109 L20,98 L19,95 L22,94 L19,90 L22,90 L21,80 L19,77 L21,77 L20,71 L18,65 L16,61 L15,55 L15,43 L16,35 L16,28 L17,22 L16,20 L12,21 L10,22 L11,14 L6,8 Z M-29,203 Z " fill="#2C395B" transform="translate(211,0)"/>
<path d="M0,0 L30,0 L35,4 L35,197 L32,200 L29,201 L0,201 L-5,198 L-6,196 L-6,5 L-3,1 Z " fill="#EEEDED" transform="translate(542,94)"/>
<path d="M0,0 L22,0 L35,4 L44,10 L50,15 L57,25 L61,36 L63,48 L63,68 L60,73 L57,74 L27,74 L22,71 L21,68 L20,46 L18,42 L13,40 L5,41 L2,44 L1,46 L1,158 L4,163 L6,164 L16,164 L19,163 L20,159 L21,127 L10,127 L5,124 L4,121 L4,93 L7,88 L9,87 L58,87 L62,90 L63,93 L63,157 L60,173 L55,183 L46,193 L38,199 L29,203 L20,205 L1,205 L-13,201 L-23,195 L-32,186 L-39,172 L-41,164 L-41,41 L-37,27 L-30,17 L-22,9 L-14,4 Z M5,6 L-6,8 L-18,14 L-27,23 L-33,35 L-35,46 L-35,159 L-32,172 L-26,183 L-19,190 L-8,196 L0,198 L21,198 L31,195 L41,189 L48,182 L54,170 L56,160 L56,94 L11,94 L11,120 L28,120 L27,158 L23,167 L16,171 L5,171 L-2,167 L-5,162 L-6,158 L-6,47 L-3,39 L2,35 L4,34 L17,34 L23,38 L27,46 L28,67 L56,67 L56,43 L53,32 L47,22 L39,14 L29,9 L24,7 L16,6 Z " fill="#323B5E" transform="translate(648,92)"/>
<path d="M0,0 L22,0 L34,4 L43,10 L51,18 L57,30 L60,41 L60,60 L57,63 L47,65 L26,67 L21,64 L20,62 L19,48 L17,41 L9,40 L4,43 L3,46 L3,55 L6,63 L13,72 L24,84 L37,97 L44,105 L54,118 L61,132 L64,144 L64,161 L60,176 L53,187 L45,195 L35,201 L21,205 L3,205 L-9,202 L-20,196 L-27,190 L-34,180 L-39,168 L-40,163 L-40,143 L-37,140 L-25,138 L-16,137 L-4,137 L0,142 L1,156 L4,162 L7,164 L17,164 L22,159 L22,148 L16,136 L1,120 L-9,111 L-16,103 L-25,93 L-33,80 L-38,65 L-39,58 L-39,45 L-36,31 L-30,19 L-21,9 L-11,3 Z M3,6 L-8,9 L-18,15 L-25,23 L-30,33 L-32,44 L-32,61 L-30,69 L-25,81 L-17,92 L-8,102 L16,126 L25,138 L29,148 L29,158 L26,165 L20,170 L17,171 L6,171 L0,167 L-4,162 L-6,156 L-7,143 L-29,145 L-34,146 L-34,160 L-29,176 L-23,184 L-14,192 L-4,197 L1,198 L22,198 L34,194 L43,188 L51,179 L56,167 L57,162 L57,142 L54,132 L48,121 L37,107 L21,90 L10,79 L0,66 L-3,59 L-3,42 L0,37 L5,34 L15,34 L21,37 L25,44 L27,60 L49,58 L54,57 L54,44 L51,32 L45,21 L38,14 L24,7 L20,6 Z " fill="#313B5E" transform="translate(318,92)"/>
<path d="M0,0 L51,0 L65,3 L75,8 L85,17 L92,28 L95,38 L96,45 L96,79 L92,95 L86,105 L78,113 L92,163 L100,191 L99,198 L94,201 L64,201 L59,198 L56,190 L39,126 L39,123 L35,123 L35,197 L32,200 L29,201 L0,201 L-5,198 L-6,196 L-6,5 L-3,1 Z M1,7 L1,194 L29,194 L29,117 L44,117 L47,132 L53,153 L59,177 L64,194 L93,194 L91,184 L84,158 L77,135 L71,112 L72,109 L80,102 L86,92 L88,87 L89,81 L89,40 L85,29 L78,19 L69,12 L56,7 Z " fill="#323B5F" transform="translate(412,94)"/>
<path d="M0,0 L39,0 L44,3 L47,16 L76,191 L75,198 L70,201 L40,201 L35,198 L33,191 L29,164 L29,159 L9,159 L8,173 L4,197 L1,200 L-2,201 L-31,201 L-36,198 L-37,196 L-36,184 L-7,9 L-5,3 Z M0,7 L-24,151 L-30,187 L-30,194 L-2,194 L4,153 L34,153 L36,168 L38,178 L40,194 L69,194 L68,182 L52,87 L44,37 L39,7 Z " fill="#313A5E" transform="translate(1009,94)"/>
<path d="M0,0 L39,0 L44,3 L47,16 L76,191 L75,198 L70,201 L40,201 L35,198 L33,191 L29,164 L29,159 L9,159 L8,173 L4,197 L1,200 L-2,201 L-31,201 L-36,198 L-37,196 L-36,184 L-7,9 L-5,3 Z M0,7 L-24,151 L-30,187 L-30,194 L-2,194 L4,153 L34,153 L36,168 L38,178 L40,194 L69,194 L68,182 L52,87 L44,37 L39,7 Z " fill="#313A5E" transform="translate(766,94)"/>
<path d="M0,0 L30,0 L35,4 L35,161 L82,161 L86,166 L86,195 L83,200 L80,201 L0,201 L-5,198 L-6,196 L-6,5 L-3,1 Z M1,7 L1,194 L80,194 L80,167 L29,167 L29,7 Z " fill="#313B5E" transform="translate(870,94)"/>
<path d="M0,0 L30,0 L35,4 L35,197 L32,200 L29,201 L0,201 L-5,198 L-6,196 L-6,5 L-3,1 Z M1,7 L1,194 L29,194 L29,7 Z " fill="#323B5E" transform="translate(542,94)"/>
<path d="M0,0 L2,0 L2,3 L8,3 L12,8 L14,18 L15,44 L17,44 L19,50 L19,55 L11,59 L2,62 L-3,63 L-3,65 L-10,69 L-12,69 L-12,71 L-21,77 L-30,81 L-33,75 L-35,60 L-35,51 L-30,46 L-25,44 L-25,42 L-21,41 L-21,39 L-17,35 L-14,29 L-12,17 L-8,9 L-18,12 L-26,23 L-36,30 L-41,33 L-42,42 L-47,48 L-46,53 L-43,62 L-43,86 L-48,87 L-70,87 L-75,80 L-73,71 L-66,51 L-62,43 L-58,41 L-58,39 L-49,34 L-39,28 L-33,26 L-33,24 L-27,20 L-24,15 L-22,15 L-21,11 L-16,8 L-7,5 L-6,3 Z M-1,9 L-4,17 L-6,22 L-9,36 L-17,45 L-28,53 L-28,62 L-26,70 L-21,68 L-15,64 L-9,60 L3,54 L11,51 L10,47 L8,41 L7,15 L5,10 Z M-55,47 Z M-57,48 L-62,60 L-66,73 L-67,77 L-66,80 L-57,81 L-49,80 L-50,62 L-55,48 Z " fill="#2C395B" transform="translate(149,167)"/>
<path d="M0,0 L19,0 L27,4 L31,9 L32,12 L32,45 L29,51 L23,56 L19,57 L0,57 Z M6,7 L6,50 L20,50 L25,45 L25,12 L21,8 L19,7 Z " fill="#303A5D" transform="translate(441,127)"/>
<path d="M0,0 L1,0 L4,23 L7,40 L11,67 L11,77 L-11,77 L-9,56 L-5,30 L-1,1 Z M0,46 L-2,55 L-4,71 L4,71 L3,60 L1,46 Z " fill="#353E60" transform="translate(1028,142)"/>
<path d="M0,0 L1,0 L4,23 L7,40 L11,67 L11,77 L-11,77 L-9,56 L-5,30 L-1,1 Z M0,46 L-2,55 L-4,71 L4,71 L3,60 L1,46 Z " fill="#353E60" transform="translate(785,142)"/>
<path d="M0,0 L3,1 L-8,7 L-18,12 L-32,16 L-41,17 L-37,15 L-24,11 L-12,6 Z " fill="#343F61" transform="translate(157,250)"/>
<path d="M0,0 L2,1 L1,3 L-9,7 L-13,13 L-18,18 L-26,24 L-26,21 L-23,20 L-23,18 L-17,14 L-14,9 L-12,9 L-11,5 L-6,2 Z " fill="#374163" transform="translate(139,173)"/>
<path d="M0,0 L2,1 L2,3 L-13,7 L-18,7 L-14,5 L-1,1 Z " fill="#3C4666" transform="translate(134,260)"/>
<path d="M0,0 L3,1 L-5,6 L-8,5 Z " fill="#2D395C" transform="translate(157,250)"/>
<path d="M0,0 Z M-2,1 L0,1 L-1,4 L-9,5 L-5,2 Z " fill="#374163" transform="translate(221,264)"/>
</svg>
